<svg id="svg" version="1.1" viewBox="47 116 204 51" width="204" height="51" xmlns="http://www.w3.org/2000/svg">
  <defs>
    <clipPath id="clip-1">
      <rect x="0" y="0" transform="scale(0.14648,0.14648)" width="2048" height="2048" fill="none"/>
    </clipPath>
    <!-- Máscaras para restar los huecos blancos de sus respectivas letras -->
    <mask id="mask-letra1">
      <rect width="300" height="300" fill="#ffffff"/>
      <path d="M223.83838,141.38086c0.70605,-0.03999 1.34033,-0.05903 2.00684,0.22075c0.84668,0.35977 1.51465,1.04355 1.85303,1.89873c0.88477,2.24092 -0.16406,3.99478 -2.30566,4.79751c-1.58936,0.11279 -2.99268,-0.30908 -3.69727,-1.8627c-0.42041,-0.95083 -0.44092,-2.0313 -0.05566,-2.99722c0.479,-1.18843 1.09717,-1.56885 2.19873,-2.05708z" fill="#000000"/>
    </mask>
    <mask id="mask-letra2">
      <rect width="300" height="300" fill="#ffffff"/>
      <path d="M197.61768,141.38994c0.71045,-0.04102 1.30371,-0.04043 1.97607,0.24155c0.86279,0.36167 1.54541,1.05454 1.89258,1.92334c0.97852,2.40791 -0.24756,4.30649 -2.51514,5.18101c-0.71484,0.00879 -1.25391,0.01025 -1.93066,-0.25781c-0.90527,-0.36328 -1.61719,-1.08691 -1.96875,-1.99614c-0.37061,-0.96738 -0.34277,-2.04199 0.07471,-2.98975c0.54053,-1.20278 1.29346,-1.67227 2.47119,-2.1022z" fill="#000000"/>
    </mask>
    <mask id="mask-letra3">
      <rect width="300" height="300" fill="#ffffff"/>
      <path d="M239.63965,141.0731c2.44775,-0.13623 3.02344,0.47842 3.83789,2.65034l-2.07568,-0.01113c-1.125,-0.02139 -2.73193,0.26909 -3.58594,-0.20229c-0.50244,-1.07549 1.01514,-2.03159 1.82373,-2.43691z" fill="#000000"/>
    </mask>
    <mask id="mask-letra4">
      <rect width="300" height="300" fill="#ffffff"/>
      <path d="M167.31152,140.96367c2.08301,0.00425 2.62061,0.97324 3.2168,2.77441l-3.02344,-0.02314l-3.35449,-0.00015c0.72949,-1.73511 1.2334,-2.49009 3.16113,-2.75112z" fill="#000000"/>
    </mask>
  </defs>
  <g clip-path="url(#clip-1)" fill="none" fill-rule="nonzero" stroke="none" stroke-width="1" stroke-linecap="butt" stroke-linejoin="miter" stroke-miterlimit="10" stroke-dasharray="" stroke-dashoffset="0" font-family="none" font-weight="none" font-size="none" text-anchor="none" style="mix-blend-mode: normal">
    <path d="M72.36899,119.59409c5.70308,-0.25298 14.03906,2.204 17.57021,6.97397c-1.67285,1.33506 -3.33765,2.68008 -4.99424,4.03521c-5.71729,-4.83076 -13.44067,-6.23584 -20.05811,-2.27007c-3.49834,2.10542 -6.00542,5.527 -6.95874,9.49731c-0.95464,3.91641 -0.38276,8.14805 1.75356,11.58647c2.25176,3.5874 5.84604,6.12451 9.98086,7.0459c4.63154,1.03271 8.89731,0.10107 12.86748,-2.39355c0.71528,-0.48926 1.41255,-1.0459 2.10103,-1.57471c1.67241,1.39307 3.37002,2.75537 5.09194,4.08838c-8.74717,8.69531 -22.90063,9.14355 -32.13296,0.98145c-4.32656,-3.78076 -6.94644,-9.14502 -7.26709,-14.88135c-0.3312,-5.7687 1.69175,-11.4252 5.6061,-15.67559c4.39688,-4.86797 9.99214,-7.06494 16.43994,-7.41343z" fill="#313132"/>
    <path d="M222.53027,138.0123c2.53271,-0.18296 2.95898,0.00293 5.09912,1.26489c0.49512,-0.12129 -0.10107,-0.31934 0.39111,-0.98613c0.93604,-0.20435 2.70117,-0.09434 3.7251,-0.07075l0.07471,8.52773c0.00879,1.7959 0.07617,3.61084 -0.14502,5.39795c-0.60498,4.91748 -5.05225,6.5625 -9.3999,5.74072c-1.05322,-0.19922 -3.60205,-1.21436 -4.1499,-2.10791l0.10254,-0.31641c0.67676,-0.75293 1.35938,-1.63477 2.00098,-2.43164c1.23047,0.91699 2.46973,1.7666 4.06055,1.73291c3.04102,-0.06299 3.50098,-2.22363 3.53174,-4.63037c-0.73535,0.63281 -1.31982,1.01074 -2.25,1.33594c-1.51611,0.53027 -3.18164,0.4292 -4.62451,-0.27832c-4.76221,-2.29687 -5.15186,-9.9312 -0.48486,-12.44399c0.68994,-0.3709 1.32422,-0.53379 2.06836,-0.73462z" fill="#fe6732" mask="url(#mask-letra1)"/>
    <path d="M68.71582,131.67539c2.32617,0.26104 13.67007,7.51011 16.60693,9.14414c2.57856,1.43467 -5.49492,5.24077 -6.44766,5.7791c-1.89814,1.11328 -8.10645,5.30713 -9.96152,5.32471c-0.27803,0.00146 -0.77446,-0.08057 -0.9542,-0.31055c-0.35786,-0.4585 -0.41045,-1.43848 -0.44985,-2.02002c-0.11587,-1.70801 -0.20669,-15.71499 0.05596,-16.71079c0.16318,-0.61831 0.65186,-0.87759 1.15034,-1.20659z" fill="#313132"/>
    <path d="M197.49023,137.68726c4.04736,-0.43008 7.68457,2.48467 8.146,6.52881c0.46143,4.0437 -2.42432,7.70288 -6.46436,8.19653c-4.08545,0.49951 -7.79443,-2.42578 -8.26172,-6.51504c-0.46729,-4.08911 2.4873,-7.77539 6.58008,-8.2103z" fill="#fe6732" mask="url(#mask-letra2)"/>
    <path d="M133.7373,131.58091c3.67207,-0.28403 6.8666,0.36768 9.30791,3.33091c-0.99932,0.82383 -1.82476,1.56416 -2.77427,2.44761c-6.40986,-6.41221 -14.73486,1.81875 -10.10815,8.40205c0.96973,1.39966 2.4687,2.34302 4.1502,2.61255c2.22466,0.35303 3.67031,-0.25781 5.38916,-1.50293l0.49263,-0.46436c0.825,0.052 2.22129,1.65527 2.92031,2.31885c-3.55283,3.81885 -9.43564,4.44873 -13.77026,1.61426c-2.23887,-1.45166 -3.8061,-3.73535 -4.35381,-6.34731c-1.34224,-6.42788 2.5311,-11.18613 8.74629,-12.41162z" fill="#313132"/>
    <path d="M177.87158,131.69268l13.30957,-0.02212l-0.00439,3.53511l-9.1084,0.01934l-0.00586,4.51377l7.72852,-0.02637l0.04248,3.26426l-0.13916,0.24463c-0.90381,0.16641 -6.23145,0.10269 -7.68311,0.12891c-0.05127,2.81455 -0.05566,5.63027 -0.01172,8.44424l-4.15723,0.01465z" fill="#fe6732"/>
    <path d="M239.54443,138.01904c0.32373,-0.02505 0.64893,-0.03574 0.97412,-0.03193c5.21484,0.01069 6.88037,3.98379 6.70898,8.53828c-3.24023,-0.07778 -6.61523,-0.02783 -9.86572,-0.02344c1.53369,3.30322 4.25977,2.88574 6.90381,1.18213l0.74121,0.60059l1.70654,1.48389c-1.06494,1.01074 -2.41553,1.81934 -3.83643,2.19141c-2.04639,0.55225 -4.229,0.25781 -6.05713,-0.81738c-1.63916,-0.97998 -2.80664,-2.58984 -3.22852,-4.45312c-1.08105,-4.57983 1.61426,-7.72983 5.95313,-8.67041z" fill="#fe6732" mask="url(#mask-letra3)"/>
    <path d="M166.44434,138.01597c5.5459,-0.38262 8.14453,3.13008 7.59521,8.41245c-3.18164,0.08672 -6.68848,0.02358 -9.89209,0.02739c2.00391,3.58081 4.06934,2.76489 7.23779,1.36011c0.13477,-0.05859 0.48193,0.28857 0.59619,0.38086c0.58594,0.50098 1.18066,1.05908 1.75342,1.5791c-2.73926,2.44043 -6.53906,3.28711 -9.84082,1.43994c-1.64355,-0.93018 -2.84033,-2.4873 -3.31494,-4.31689c-1.18652,-4.53311 1.52344,-7.88701 5.86523,-8.88296z" fill="#313132" mask="url(#mask-letra4)"/>
    <path d="M144.71792,138.23408l3.94321,0.01113c-0.01611,1.54233 -0.44531,8.89834 0.72949,9.61904c6.34424,3.88184 5.0332,-6.33516 5.00244,-9.62388l3.94629,0.00249l0.01172,4.56006l0.00439,8.96807c-1.11328,0.01465 -2.6543,0.0791 -3.72803,-0.03516c-0.30908,-0.53027 0.01465,-0.51709 -0.17432,-1.2832c-1.11768,0.59473 -2.37305,1.53516 -3.62549,1.61719c-4.36743,0.28857 -6.16787,-2.44189 -6.12876,-6.52471c0.02314,-2.39868 0.01011,-4.90679 0.01904,-7.31104z" fill="#313132"/>
    <path d="M92.33848,139.50996c7.33711,-0.17549 15.54727,0.05566 22.92114,0.1106c1.17231,0.00879 2.80781,3.20977 -0.15718,4.28599c-2.48174,0.04775 -21.99536,0.32783 -23.37466,-0.31626c-0.5083,-0.2373 -0.90586,-0.71104 -1.08179,-1.24014c-0.19043,-0.5729 -0.09346,-1.18315 0.18618,-1.70991c0.34453,-0.64907 0.82207,-0.93091 1.5063,-1.13027z" fill="#fe6732"/>
    <path d="M91.80674,130.82666c0.47036,-0.0416 0.94189,-0.06768 1.41401,-0.07808c3.67734,-0.09976 7.39644,0.09214 11.10864,-0.00483c1.65,-0.04307 5.38389,-0.47344 5.02939,2.28149c-0.13477,1.04678 -0.41821,1.35132 -1.22959,2.01255c-4.52241,0.25869 -9.37266,-0.10327 -13.91616,0.07339c-1.01162,-0.01479 -2.60435,0.06563 -3.26221,-0.8877c-0.91377,-1.32422 -0.2436,-2.58267 0.85591,-3.39683z" fill="#fe6732"/>
    <path d="M91.79429,148.10889c4.29492,-0.15527 8.71714,0.0791 13.01982,-0.04102c1.90913,-0.0542 3.67017,-0.19629 3.88521,2.20313c0.09595,1.07227 -0.47739,1.604 -1.33301,2.09473c-4.4792,0.35742 -10.26929,-0.07324 -14.85146,0.03369c-1.94619,0.04541 -3.02446,-2.78027 -0.72056,-4.29053z" fill="#fe6732"/>
    <path d="M215.34082,138.01978l1.56152,-0.04351c-0.01904,1.33022 -0.02051,2.6606 -0.00586,3.99082c-4.86328,-0.704 -5.08594,1.73496 -4.9541,5.85322c0.04102,1.29053 0.03369,2.7041 0.05273,4.00781l-3.96094,-0.03223c-0.20801,-0.50977 -0.09082,-12.03735 -0.08936,-13.57515c1.38867,0.02827 3.01758,-0.33911 3.94775,0.24434c0.28271,0.44004 0.15674,0.86807 0.104,1.4168c1.25977,-1.29829 1.64795,-1.49224 3.34424,-1.86211z" fill="#fe6732"/>
  </g>
</svg>
