<svg version="1.1" id="Layer_1" xmlns="http://www.w3.org/2000/svg" xmlns:xlink="http://www.w3.org/1999/xlink" x="0px" y="0px"
	 width="100%" viewBox="0 0 1254 1254" xml:space="preserve">
<g>
  <!-- Tres líneas horizontales color naranja -->
  <path fill="#fe6732" d="
  M744.274597,755.794067 
	C744.599548,755.862854 744.924438,755.991882 745.249390,755.991943 
	C803.518372,756.001343 861.787354,756.006165 920.056335,755.964355 
	C921.066772,755.963623 922.076782,755.396362 923.857117,755.013489 
	C943.289795,750.527405 954.212952,726.754089 941.569458,708.780640 
	C936.138184,701.059692 928.862061,697.591553 919.712952,695.186951 
	C919.220642,695.118103 918.728271,694.989014 918.235962,694.988953 
	C861.935059,694.983948 805.634155,694.982422 749.333313,695.034790 
	C748.166199,695.035889 746.999573,695.667419 745.041138,695.980042 
	C737.372864,697.296265 730.800171,700.624817 726.008301,706.868652 
	C718.672974,716.426636 717.820923,726.935974 722.051208,737.971436 
	C725.062500,745.826904 735.449768,754.672913 744.274597,755.794067 Z"/>
  <path fill="#fe6732" d="
  M913.916016,534.061096 
	C917.889099,533.933411 922.099060,534.616150 925.793701,533.536011 
	C940.822876,529.142029 952.095581,514.257141 947.764954,496.981415 
	C945.114563,486.408295 938.466492,478.165009 927.136780,475.717834 
	C920.937988,474.378937 914.431335,474.465607 907.630920,473.145996 
	C888.410583,473.096283 869.190186,473.037170 849.969849,473.035919 
	C849.293701,473.035889 848.617493,473.611237 847.498901,473.965454 
	C847.498901,473.965454 847.057983,473.906342 846.623169,473.145752 
	C822.411072,473.095062 798.199036,473.036926 773.986938,473.031799 
	C773.308472,473.031677 772.629822,473.597717 771.023132,473.978851 
	C764.712646,473.982758 758.382080,474.313538 752.095398,473.928528 
	C734.088562,472.825806 719.046082,486.995789 719.657166,505.849060 
	C720.080200,518.903076 734.359619,535.199890 748.302063,534.798157 
	C748.794250,534.867126 749.286438,534.996521 749.778625,534.996643 
	C803.052673,535.007935 856.326660,535.015808 909.600647,534.971008 
	C910.775757,534.969971 911.950317,534.360901 913.916016,534.061096 Z"/>
  <path fill="#fe6732" d="
  M1020.669434,644.969238 
	C1030.014038,642.848877 1037.101685,637.933411 1042.167236,629.515625 
	C1048.741943,618.590088 1046.089355,600.221313 1036.056030,592.474060 
	C1029.404663,587.338196 1021.653992,585.081787 1013.390198,585.037903 
	C988.405334,584.905212 963.419250,585.011780 938.433655,584.995483 
	C889.963745,584.963989 841.493896,584.912231 792.584839,584.117798 
	C783.543274,584.073608 774.501526,583.980530 765.460388,584.026062 
	C763.631226,584.035339 761.804626,584.568604 759.050781,584.978149 
	C755.394104,584.983337 751.725037,584.794495 748.082886,585.027161 
	C731.813965,586.066101 717.542480,599.275146 719.996521,617.625671 
	C722.009338,632.677307 730.330994,641.517395 745.991821,645.015381 
	C802.970886,645.013672 859.949890,645.026855 916.928955,645.004578 
	C951.245911,644.991150 985.562805,644.922302 1020.669434,644.969238 Z"/>
  
  <!-- Triángulo central (Botón Play) -->
  <path fill="#1D2025" d="
  M425.982391,718.791687 
	C427.026184,724.166565 429.170624,728.672485 433.951508,732.005859 
	C442.834015,738.199097 451.204285,735.788879 459.313660,730.927734 
	C486.492645,714.635193 513.524109,698.096741 540.672058,681.752136 
	C567.849609,665.389771 594.976868,648.937561 622.372375,632.946594 
	C634.728516,625.734253 638.114014,607.988159 626.735535,597.310730 
	C622.033325,592.898254 615.792603,590.115540 610.219666,586.642822 
	C601.093506,580.956055 592.015137,575.187439 582.784912,569.673828 
	C561.871948,557.181641 540.841125,544.886597 519.928528,532.393860 
	C498.577606,519.639221 477.352966,506.673035 455.991058,493.936951 
	C443.299072,486.369934 427.326233,493.840607 425.195129,509.311005 
	C425.121582,509.969208 424.983704,510.627411 424.983643,511.285614 
	C424.977844,579.057983 424.977478,646.830383 425.028687,714.602661 
	C425.029572,715.743042 425.664124,716.882812 425.982391,718.791687 Z"/>
  
  <!-- Letra "C" exterior -->
  <path fill="#1D2025" d="
  M479.275726,892.841003 
	C487.955933,892.919861 496.636078,893.022400 505.316315,893.029175 
	C505.961487,893.029724 506.607147,892.342407 508.133209,892.110718 
	C514.594116,891.653015 521.200745,891.899597 527.487366,890.599243 
	C543.308472,887.326843 559.142700,883.909363 574.668579,879.486206 
	C586.531494,876.106567 598.334045,871.944031 609.449219,866.634644 
	C630.110291,856.765442 650.130127,845.541626 667.717163,830.661438 
	C677.732727,822.187439 687.258667,813.115051 696.728699,804.024170 
	C701.468140,799.474487 701.287537,797.539795 696.420044,792.930542 
	C690.791016,787.600159 684.860596,782.589050 679.088745,777.408386 
	C666.548706,766.152893 654.021423,754.883240 641.500549,743.606384 
	C638.718872,741.101196 633.522522,741.105347 630.654297,743.485657 
	C621.008484,751.490601 611.634094,759.871521 601.559998,767.300659 
	C583.329224,780.744995 562.965942,790.187256 540.974854,795.421082 
	C526.672729,798.825012 512.045532,801.429199 497.416962,802.700806 
	C487.317474,803.578796 476.850128,802.301880 466.751556,800.699585 
	C442.531860,796.856689 419.310028,789.799194 397.879913,777.396606 
	C370.809021,761.729309 349.045258,740.441101 331.958954,714.528320 
	C317.218201,692.172791 308.220825,667.323486 304.342224,640.820618 
	C302.834503,630.517883 302.228821,620.027893 302.034821,609.607910 
	C301.909271,602.865417 303.264954,596.094116 303.973999,589.337524 
	C306.226715,567.869934 312.122223,547.502258 321.660675,528.088562 
	C334.996826,500.945374 354.025116,478.530457 377.823425,460.202942 
	C398.213623,444.500122 421.188995,433.759155 446.018341,426.947723 
	C467.635254,421.017578 489.704590,419.950043 511.871887,421.334198 
	C528.983032,422.402679 545.595520,426.320923 561.699341,432.437195 
	C577.094788,438.284515 591.672302,445.628174 604.772583,455.579773 
	C614.537659,462.997864 623.761047,471.126312 633.290649,478.858368 
	C638.116882,482.774231 640.869507,482.367462 645.350281,478.351685 
	C655.603027,469.162872 666.087219,460.232727 676.391235,451.100281 
	C684.840088,443.612061 693.236755,436.061188 701.507446,428.377502 
	C704.644470,425.463074 704.912415,420.024414 701.864319,417.131378 
	C691.417786,407.216125 681.149292,397.045746 670.026855,387.932037 
	C661.529602,380.969391 652.221497,374.770264 642.593201,369.467926 
	C628.822266,361.884186 614.727661,354.707214 600.209961,348.717010 
	C588.331970,343.815979 575.840576,339.862671 563.249573,337.355347 
	C544.473755,333.616394 525.446838,330.554749 506.381256,329.056458 
	C493.280701,328.026947 479.910858,329.856232 466.701996,330.914734 
	C449.668243,332.279755 432.950531,335.305908 416.595978,340.600983 
	C396.971527,346.954681 377.757782,354.119232 359.658783,364.127502 
	C336.344818,377.019379 314.916412,392.384033 296.026611,411.263855 
	C285.127899,422.156738 274.422363,433.163666 266.058990,446.213654 
	C258.862793,457.442413 251.056335,468.322540 244.508621,479.915344 
	C231.507370,502.934204 222.976166,527.796021 217.422211,553.548645 
	C214.400253,567.560852 211.420135,581.933105 211.412384,596.144592 
	C211.404800,610.071777 208.714569,624.196777 212.459946,638.159058 
	C213.635620,642.541870 212.354385,647.534912 213.178619,652.070312 
	C215.334824,663.934814 217.546738,675.828979 220.618835,687.478638 
	C226.449127,709.587280 235.846039,730.251465 246.889023,750.266174 
	C258.610504,771.510620 273.003296,790.697449 290.005127,807.875244 
	C313.148773,831.258301 339.770355,849.799561 369.494446,864.005981 
	C386.952423,872.350037 404.873505,879.143982 423.580627,884.154175 
	C441.780975,889.028503 460.146698,891.990234 479.275726,892.841003 Z"/>
</g>
</svg>